<svg width="26" height="22" viewBox="0 0 26 22" fill="none" xmlns="http://www.w3.org/2000/svg">
<path d="M10.5708 20C10.5674 19.4894 10.3631 19.0008 10.0021 18.6397C9.64103 18.2787 9.15236 18.0744 8.64181 18.071C8.13143 18.0747 7.64301 18.2791 7.28221 18.6401C6.9214 19.0011 6.71721 19.4896 6.71381 20C6.71721 20.5105 6.92154 20.9992 7.28256 21.3602C7.64358 21.7213 8.13225 21.9256 8.64281 21.929C9.15318 21.9253 9.6416 21.7209 10.0024 21.3599C10.3632 20.9989 10.5674 20.5104 10.5708 20ZM24.0708 20C24.0674 19.4896 23.8632 19.0011 23.5024 18.6401C23.1416 18.2791 22.6532 18.0747 22.1428 18.071C21.6323 18.0744 21.1436 18.2787 20.7826 18.6397C20.4215 19.0008 20.2172 19.4894 20.2138 20C20.2172 20.5105 20.4215 20.9992 20.7826 21.3602C21.1436 21.7213 21.6323 21.9256 22.1428 21.929C22.6532 21.9253 23.1416 21.7209 23.5024 21.3599C23.8632 20.9989 24.0674 20.5104 24.0708 20V20ZM25.9998 3.60699C25.998 3.35189 25.8958 3.10775 25.7154 2.92736C25.535 2.74697 25.2909 2.64482 25.0358 2.64299H6.93581C6.78481 1.91999 6.75481 0.713989 5.74581 0.713989H1.88881C1.6337 0.715822 1.38957 0.817974 1.20918 0.998363C1.02879 1.17875 0.926637 1.42289 0.924805 1.67799C0.926637 1.93309 1.02879 2.17723 1.20918 2.35761C1.38957 2.538 1.6337 2.64016 1.88881 2.64199H4.9628L7.6298 15.042C7.22443 15.6815 6.91482 16.3768 6.71081 17.106C6.71264 17.3611 6.81479 17.6052 6.99518 17.7856C7.17557 17.966 7.4197 18.0682 7.6748 18.07H23.1068C23.3619 18.0682 23.606 17.966 23.7864 17.7856C23.9668 17.6052 24.069 17.3611 24.0708 17.106C24.069 16.8509 23.9668 16.6068 23.7864 16.4264C23.606 16.246 23.3619 16.1438 23.1068 16.142H9.24581C9.43834 15.8524 9.56216 15.5227 9.60781 15.178C9.57914 14.8202 9.51209 14.4665 9.40781 14.123L25.1408 12.286C25.376 12.255 25.5922 12.1405 25.7499 11.9633C25.9076 11.7862 25.9963 11.5582 25.9998 11.321V3.60699Z" fill="black"/>
</svg>
