<svg width="21" height="21" viewBox="0 0 21 21" fill="none" xmlns="http://www.w3.org/2000/svg">
<path d="M14.7403 8.608C14.7387 10.0604 14.1611 11.4528 13.1341 12.4798C12.1071 13.5068 10.7147 14.0844 9.26232 14.086C7.80995 14.0844 6.41753 13.5068 5.39055 12.4798C4.36357 11.4528 3.78591 10.0604 3.78432 8.608C3.78591 7.15564 4.36357 5.76321 5.39055 4.73623C6.41753 3.70925 7.80995 3.13159 9.26232 3.13C10.7147 3.13159 12.1071 3.70925 13.1341 4.73623C14.1611 5.76321 14.7387 7.15564 14.7403 8.608V8.608ZM21.0003 18.78C20.9993 18.3683 20.837 17.9735 20.5483 17.68L16.3543 13.486C17.3424 12.0513 17.8707 10.35 17.8693 8.608C17.8704 7.47729 17.6484 6.35747 17.2162 5.31262C16.784 4.26777 16.15 3.31842 15.3504 2.51888C14.5509 1.71934 13.6016 1.08532 12.5567 0.653105C11.5119 0.220885 10.392 -0.00104859 9.26132 3.72475e-06C8.13061 -0.00104859 7.01079 0.220885 5.96594 0.653105C4.92109 1.08532 3.97174 1.71934 3.1722 2.51888C2.37266 3.31842 1.73864 4.26777 1.30642 5.31262C0.874205 6.35747 0.652272 7.47729 0.653324 8.608C0.652272 9.73872 0.874205 10.8585 1.30642 11.9034C1.73864 12.9482 2.37266 13.8976 3.1722 14.6971C3.97174 15.4967 4.92109 16.1307 5.96594 16.5629C7.01079 16.9951 8.13061 17.2171 9.26132 17.216C11.0042 17.2172 12.7063 16.6881 14.1413 15.699L18.3353 19.881C18.4785 20.0276 18.6496 20.144 18.8386 20.2233C19.0275 20.3027 19.2304 20.3434 19.4353 20.343C19.8492 20.3401 20.2452 20.1746 20.5381 19.8822C20.8309 19.5897 20.9969 19.1938 21.0003 18.78V18.78Z" fill="#959595"/>
</svg>
