<svg width="25" height="25" viewBox="0 0 25 25" fill="none" xmlns="http://www.w3.org/2000/svg">
<path d="M12.4999 0.516011C14.6293 0.502026 16.7223 1.06755 18.5549 2.15201C20.3854 3.2174 21.9081 4.73971 22.9739 6.57001C24.058 8.40269 24.6232 10.4957 24.6089 12.625C24.6232 14.7543 24.058 16.8473 22.9739 18.68C21.9084 20.511 20.3857 22.0341 18.5549 23.1C16.7221 24.1838 14.6291 24.7486 12.4999 24.734C10.3707 24.7486 8.27768 24.1838 6.4449 23.1C4.61411 22.0341 3.09143 20.511 2.0259 18.68C0.941439 16.8474 0.375916 14.7544 0.389902 12.625C0.375916 10.4956 0.941439 8.40259 2.0259 6.57001C3.09157 4.73934 4.61423 3.21668 6.4449 2.15101C8.27758 1.0669 10.3706 0.501723 12.4999 0.516011V0.516011ZM12.4999 2.86001C10.7829 2.84883 9.0951 3.30439 7.6169 4.17801C6.13986 5.03674 4.91163 6.26496 4.0529 7.74201C3.17718 9.22809 2.72163 10.9242 2.7349 12.649C2.7222 14.3804 3.19509 16.0808 4.0999 17.557C4.27906 16.8712 4.6137 16.2357 5.0779 15.7C5.64233 15.0747 6.36935 14.6184 7.1779 14.382C6.56723 13.4006 6.24559 12.2669 6.2499 11.111C6.2363 9.98942 6.52286 8.88459 7.0799 7.91101C7.61967 6.96414 8.40403 6.17977 9.3509 5.64001C10.3079 5.08769 11.395 4.80114 12.4999 4.81001C13.6048 4.80114 14.6919 5.08769 15.6489 5.64001C16.596 6.18032 17.3804 6.96541 17.9199 7.91301C18.4722 8.86997 18.7588 9.95714 18.7499 11.062C18.7588 12.2339 18.4372 13.3846 17.8219 14.382C18.6305 14.6184 19.3575 15.0747 19.9219 15.7C20.3861 16.2357 20.7207 16.8712 20.8999 17.557C21.8051 16.0809 22.2783 14.3805 22.2659 12.649C22.2792 10.9242 21.8236 9.22809 20.9479 7.74201C20.0892 6.26496 18.8609 5.03674 17.3839 4.17801C15.9055 3.30387 14.2174 2.84795 12.4999 2.85901V2.86001ZM16.4059 11.06C16.4135 10.546 16.3156 10.0359 16.1183 9.56118C15.9211 9.08647 15.6286 8.65725 15.2589 8.30001C14.9015 7.93102 14.4723 7.63914 13.9978 7.44239C13.5233 7.24564 13.0135 7.14817 12.4999 7.15601C11.9863 7.14817 11.4765 7.24564 11.002 7.44239C10.5275 7.63914 10.0983 7.93102 9.7409 8.30001C9.37137 8.65713 9.07894 9.08619 8.88166 9.56072C8.68439 10.0352 8.58645 10.5452 8.5939 11.059C8.58645 11.5729 8.68439 12.0828 8.88166 12.5573C9.07894 13.0318 9.37137 13.4609 9.7409 13.818C10.0977 14.1883 10.5266 14.4814 11.0011 14.6794C11.4757 14.8774 11.9858 14.9759 12.4999 14.969C13.0138 14.9763 13.5238 14.8782 13.9983 14.6808C14.4728 14.4833 14.9019 14.1907 15.2589 13.821C15.6283 13.464 15.9207 13.0351 16.1179 12.5608C16.3152 12.0864 16.4132 11.5767 16.4059 11.063V11.06ZM6.2499 20.145C7.11975 20.854 8.10149 21.4133 9.1549 21.8C10.2258 22.1947 11.3586 22.3949 12.4999 22.391C13.6412 22.3949 14.774 22.1947 15.8449 21.8C16.8983 21.4133 17.8801 20.854 18.7499 20.145V18.777C18.7518 18.2938 18.5978 17.8228 18.3109 17.434C18.0287 17.0343 17.6131 16.7485 17.1389 16.628L15.9179 16.286C14.9104 16.9698 13.7174 17.3282 12.4999 17.313C11.2826 17.3288 10.0896 16.9711 9.0819 16.288L7.8609 16.63C7.38671 16.7505 6.9711 17.0363 6.6889 17.436C6.40197 17.8248 6.24802 18.2958 6.2499 18.779V20.145Z" fill="black"/>
</svg>
